<svg width="110" height="16" viewBox="0 0 110 16" fill="none" xmlns="http://www.w3.org/2000/svg">
<path d="M34.552 6.384C34.552 7.03467 34.4027 7.632 34.104 8.176C33.8053 8.70933 33.3467 9.14133 32.728 9.472C32.1093 9.80267 31.3413 9.968 30.424 9.968H28.728V14H25.992V2.768H30.424C31.32 2.768 32.0773 2.92267 32.696 3.232C33.3147 3.54133 33.7787 3.968 34.088 4.512C34.3973 5.056 34.552 5.68 34.552 6.384ZM30.216 7.792C30.7387 7.792 31.128 7.66933 31.384 7.424C31.64 7.17867 31.768 6.832 31.768 6.384C31.768 5.936 31.64 5.58933 31.384 5.344C31.128 5.09867 30.7387 4.976 30.216 4.976H28.728V7.792H30.216ZM38.7124 6.56C39.0324 6.06933 39.4324 5.68533 39.9124 5.408C40.3924 5.12 40.9257 4.976 41.5124 4.976V7.872H40.7604C40.0777 7.872 39.5657 8.02133 39.2244 8.32C38.883 8.608 38.7124 9.12 38.7124 9.856V14H35.9764V5.072H38.7124V6.56ZM51.2361 9.392C51.2361 9.648 51.2201 9.91467 51.1881 10.192H44.9961C45.0388 10.7467 45.2148 11.1733 45.5241 11.472C45.8441 11.76 46.2335 11.904 46.6921 11.904C47.3748 11.904 47.8495 11.616 48.1161 11.04H51.0281C50.8788 11.6267 50.6068 12.1547 50.2121 12.624C49.8281 13.0933 49.3428 13.4613 48.7561 13.728C48.1695 13.9947 47.5135 14.128 46.7881 14.128C45.9135 14.128 45.1348 13.9413 44.4521 13.568C43.7695 13.1947 43.2361 12.6613 42.8521 11.968C42.4681 11.2747 42.2761 10.464 42.2761 9.536C42.2761 8.608 42.4628 7.79733 42.8361 7.104C43.2201 6.41067 43.7535 5.87733 44.4361 5.504C45.1188 5.13067 45.9028 4.944 46.7881 4.944C47.6521 4.944 48.4201 5.12533 49.0921 5.488C49.7641 5.85067 50.2868 6.368 50.6601 7.04C51.0441 7.712 51.2361 8.496 51.2361 9.392ZM48.4361 8.672C48.4361 8.20267 48.2761 7.82933 47.9561 7.552C47.6361 7.27467 47.2361 7.136 46.7561 7.136C46.2975 7.136 45.9081 7.26933 45.5881 7.536C45.2788 7.80267 45.0868 8.18133 45.0121 8.672H48.4361ZM48.6281 2.784L44.7721 4.4V2.512L48.6281 0.655999V2.784ZM52.1355 9.536C52.1355 8.608 52.3222 7.79733 52.6955 7.104C53.0795 6.41067 53.6075 5.87733 54.2795 5.504C54.9622 5.13067 55.7408 4.944 56.6155 4.944C57.7355 4.944 58.6688 5.23733 59.4155 5.824C60.1728 6.41067 60.6688 7.23733 60.9035 8.304H57.9915C57.7462 7.62133 57.2715 7.28 56.5675 7.28C56.0662 7.28 55.6662 7.47733 55.3675 7.872C55.0688 8.256 54.9195 8.81067 54.9195 9.536C54.9195 10.2613 55.0688 10.8213 55.3675 11.216C55.6662 11.6 56.0662 11.792 56.5675 11.792C57.2715 11.792 57.7462 11.4507 57.9915 10.768H60.9035C60.6688 11.8133 60.1728 12.6347 59.4155 13.232C58.6582 13.8293 57.7248 14.128 56.6155 14.128C55.7408 14.128 54.9622 13.9413 54.2795 13.568C53.6075 13.1947 53.0795 12.6613 52.6955 11.968C52.3222 11.2747 52.1355 10.464 52.1355 9.536ZM70.783 9.392C70.783 9.648 70.767 9.91467 70.735 10.192H64.543C64.5857 10.7467 64.7617 11.1733 65.071 11.472C65.391 11.76 65.7803 11.904 66.239 11.904C66.9217 11.904 67.3963 11.616 67.663 11.04H70.575C70.4257 11.6267 70.1537 12.1547 69.759 12.624C69.375 13.0933 68.8897 13.4613 68.303 13.728C67.7163 13.9947 67.0603 14.128 66.335 14.128C65.4603 14.128 64.6817 13.9413 63.999 13.568C63.3163 13.1947 62.783 12.6613 62.399 11.968C62.015 11.2747 61.823 10.464 61.823 9.536C61.823 8.608 62.0097 7.79733 62.383 7.104C62.767 6.41067 63.3003 5.87733 63.983 5.504C64.6657 5.13067 65.4497 4.944 66.335 4.944C67.199 4.944 67.967 5.12533 68.639 5.488C69.311 5.85067 69.8337 6.368 70.207 7.04C70.591 7.712 70.783 8.496 70.783 9.392ZM67.983 8.672C67.983 8.20267 67.823 7.82933 67.503 7.552C67.183 7.27467 66.783 7.136 66.303 7.136C65.8443 7.136 65.455 7.26933 65.135 7.536C64.8257 7.80267 64.6337 8.18133 64.559 8.672H67.983ZM68.175 2.784L64.319 4.4V2.512L68.175 0.655999V2.784ZM71.6824 9.52C71.6824 8.60267 71.853 7.79733 72.1944 7.104C72.5464 6.41067 73.021 5.87733 73.6184 5.504C74.2157 5.13067 74.8824 4.944 75.6184 4.944C76.205 4.944 76.7384 5.06667 77.2184 5.312C77.709 5.55733 78.093 5.888 78.3704 6.304V2.16H81.1064V14H78.3704V12.72C78.1144 13.1467 77.7464 13.488 77.2664 13.744C76.797 14 76.2477 14.128 75.6184 14.128C74.8824 14.128 74.2157 13.9413 73.6184 13.568C73.021 13.184 72.5464 12.6453 72.1944 11.952C71.853 11.248 71.6824 10.4373 71.6824 9.52ZM78.3704 9.536C78.3704 8.85333 78.1784 8.31467 77.7944 7.92C77.421 7.52533 76.9624 7.328 76.4184 7.328C75.8744 7.328 75.4104 7.52533 75.0264 7.92C74.653 8.304 74.4664 8.83733 74.4664 9.52C74.4664 10.2027 74.653 10.7467 75.0264 11.152C75.4104 11.5467 75.8744 11.744 76.4184 11.744C76.9624 11.744 77.421 11.5467 77.7944 11.152C78.1784 10.7573 78.3704 10.2187 78.3704 9.536ZM91.5017 9.392C91.5017 9.648 91.4858 9.91467 91.4538 10.192H85.2618C85.3044 10.7467 85.4804 11.1733 85.7898 11.472C86.1098 11.76 86.4991 11.904 86.9578 11.904C87.6404 11.904 88.1151 11.616 88.3818 11.04H91.2938C91.1444 11.6267 90.8724 12.1547 90.4778 12.624C90.0938 13.0933 89.6084 13.4613 89.0218 13.728C88.4351 13.9947 87.7791 14.128 87.0538 14.128C86.1791 14.128 85.4004 13.9413 84.7178 13.568C84.0351 13.1947 83.5018 12.6613 83.1178 11.968C82.7338 11.2747 82.5418 10.464 82.5418 9.536C82.5418 8.608 82.7284 7.79733 83.1018 7.104C83.4858 6.41067 84.0191 5.87733 84.7018 5.504C85.3844 5.13067 86.1684 4.944 87.0538 4.944C87.9178 4.944 88.6858 5.12533 89.3578 5.488C90.0298 5.85067 90.5524 6.368 90.9258 7.04C91.3098 7.712 91.5017 8.496 91.5017 9.392ZM88.7018 8.672C88.7018 8.20267 88.5418 7.82933 88.2218 7.552C87.9018 7.27467 87.5018 7.136 87.0218 7.136C86.5631 7.136 86.1738 7.26933 85.8538 7.536C85.5444 7.80267 85.3524 8.18133 85.2778 8.672H88.7018ZM98.3851 4.976C99.4305 4.976 100.262 5.31733 100.881 6C101.51 6.672 101.825 7.6 101.825 8.784V14H99.1051V9.152C99.1051 8.55467 98.9505 8.09067 98.6411 7.76C98.3318 7.42933 97.9158 7.264 97.3931 7.264C96.8705 7.264 96.4545 7.42933 96.1451 7.76C95.8358 8.09067 95.6811 8.55467 95.6811 9.152V14H92.9451V5.072H95.6811V6.256C95.9585 5.86133 96.3318 5.552 96.8011 5.328C97.2705 5.09333 97.7985 4.976 98.3851 4.976ZM108.702 11.68V14H107.31C106.318 14 105.545 13.76 104.99 13.28C104.436 12.7893 104.158 11.9947 104.158 10.896V7.344H103.07V5.072H104.158V2.896H106.894V5.072H108.686V7.344H106.894V10.928C106.894 11.1947 106.958 11.3867 107.086 11.504C107.214 11.6213 107.428 11.68 107.726 11.68H108.702Z" fill="#6FB4E1"/>
<path d="M3.825 9.46933L7.071 12.6252L5.657 14L4.72849e-07 8.5L5.657 3L7.071 4.37476L3.832 7.52484L15 7.52484L15 9.46933L3.825 9.46933Z" fill="#6FB4E1"/>
</svg>
